<svg xmlns="http://www.w3.org/2000/svg" viewBox="0 0 64 64">
  <defs>
    <linearGradient id="g" x1="0%" y1="0%" x2="100%" y2="100%">
      <stop offset="0%" stop-color="#06b6d4" />
      <stop offset="100%" stop-color="#8b5cf6" />
    </linearGradient>
  </defs>
  <rect x="4" y="4" width="56" height="56" rx="14" fill="#0f172a" />
  <path d="M18 22c0-2.2 1.8-4 4-4h20c2.2 0 4 1.8 4 4v2H34c-2.2 0-4 1.8-4 4s1.8 4 4 4h12v10c0 2.2-1.8 4-4 4H22c-2.2 0-4-1.8-4-4v-2h12c2.2 0 4-1.8 4-4s-1.8-4-4-4H18V22z" fill="url(#g)" />
</svg>
